<svg viewBox="0 0 400 400" xmlns="http://www.w3.org/2000/svg" role="img" aria-hidden="true">

    <defs>
      <radialGradient id="spotlight" cx="50%" cy="38%" r="65%">
        <stop offset="0%" stop-color="#3a3b40" stop-opacity="0.9"/>
        <stop offset="55%" stop-color="#222328" stop-opacity="0.55"/>
        <stop offset="100%" stop-color="#111114" stop-opacity="0"/>
      </radialGradient>
      <linearGradient id="sheenV" x1="0" y1="0" x2="0" y2="1">
        <stop offset="0%" stop-color="#ffffff" stop-opacity="0.14"/>
        <stop offset="35%" stop-color="#ffffff" stop-opacity="0.03"/>
        <stop offset="100%" stop-color="#000000" stop-opacity="0.22"/>
      </linearGradient>
      <linearGradient id="sheenD" x1="0" y1="0" x2="1" y2="1">
        <stop offset="0%" stop-color="#ffffff" stop-opacity="0.10"/>
        <stop offset="100%" stop-color="#000000" stop-opacity="0.12"/>
      </linearGradient>
    </defs>
    
<ellipse cx="200" cy="200" rx="190" ry="190" fill="url(#spotlight)"/>
<ellipse cx="205" cy="345" rx="105" ry="16" fill="#000000" opacity="0.35"/>

    <g transform="translate(0,30)">
      <path d="M92 260 C92 150 130 130 200 130 C270 130 308 150 308 260 C308 292 270 306 200 306 C130 306 92 292 92 260 Z" fill="#111114" stroke="#000" stroke-opacity="0.2" stroke-width="2"/>
      <path d="M92 260 C92 150 130 130 200 130 C270 130 308 150 308 260" fill="url(#sheenD)"/>
      <path d="M150 132 C150 104 172 88 200 88 C228 88 250 104 250 132" fill="none" stroke="#ff6a1a" stroke-width="10" stroke-linecap="round"/>
      <rect x="150" y="150" width="100" height="8" rx="4" fill="#ff6a1a"/>
      <circle cx="130" cy="180" r="10" fill="#1b1c20" stroke="#ff6a1a" stroke-width="3"/>
      <path d="M92 260 H308" stroke="#000" stroke-opacity="0.25" stroke-width="3"/>
      <text x="200" y="240" text-anchor="middle" font-family="Arial, sans-serif" font-weight="800" font-size="13" letter-spacing="1.8" fill="#f6f3ec" opacity="0.95">SHATTERED HOOPZ</text>
      
    <g transform="translate(200,200) scale(1.1)" fill="none" stroke="#ff6a1a" stroke-width="2.4" stroke-linecap="round" opacity="0.9">
      <ellipse cx="0" cy="-18" rx="22" ry="7"/>
      <path d="M-22 -18 L-15 24 M-11 -19 L-7 26 M0 -19 L0 27 M11 -19 L7 26 M22 -18 L15 24"/>
      <path d="M-19 -6 L15 -8 M-18 4 L13 2 M-16 14 L10 12"/>
    </g>
    
    </g>
    
</svg>
