<svg viewBox="0 0 400 400" xmlns="http://www.w3.org/2000/svg" role="img" aria-hidden="true">

    <defs>
      <radialGradient id="spotlight" cx="50%" cy="38%" r="65%">
        <stop offset="0%" stop-color="#3a3b40" stop-opacity="0.9"/>
        <stop offset="55%" stop-color="#222328" stop-opacity="0.55"/>
        <stop offset="100%" stop-color="#111114" stop-opacity="0"/>
      </radialGradient>
      <linearGradient id="sheenV" x1="0" y1="0" x2="0" y2="1">
        <stop offset="0%" stop-color="#ffffff" stop-opacity="0.14"/>
        <stop offset="35%" stop-color="#ffffff" stop-opacity="0.03"/>
        <stop offset="100%" stop-color="#000000" stop-opacity="0.22"/>
      </linearGradient>
      <linearGradient id="sheenD" x1="0" y1="0" x2="1" y2="1">
        <stop offset="0%" stop-color="#ffffff" stop-opacity="0.10"/>
        <stop offset="100%" stop-color="#000000" stop-opacity="0.12"/>
      </linearGradient>
    </defs>
    
<ellipse cx="200" cy="200" rx="190" ry="190" fill="url(#spotlight)"/>
<ellipse cx="205" cy="345" rx="105" ry="16" fill="#000000" opacity="0.35"/>

    <g transform="translate(0,40)">
      <path d="M118 190 C118 128 152 82 200 82 C248 82 282 128 282 190 Z" fill="#111114"/>
      <path d="M118 190 C118 128 152 82 200 82 C248 82 282 128 282 190" fill="url(#sheenD)"/>
      <rect x="112" y="186" width="176" height="52" rx="18" fill="#1b1c20" stroke="#ff6a1a" stroke-width="3"/>
      <path d="M130 200 H270 M130 216 H270" stroke="#000" stroke-opacity="0.25" stroke-width="3"/>
      <circle cx="200" cy="76" r="12" fill="#ff6a1a"/>
      <text x="200" y="216" text-anchor="middle" font-family="Arial, sans-serif" font-weight="900" font-size="20" fill="#f6f3ec" opacity="0.95">SH</text>
    </g>
    
</svg>
